<?xml version="1.0" encoding="utf-8"?>
<!-- Generator: Adobe Illustrator 26.4.1, SVG Export Plug-In . SVG Version: 6.00 Build 0)  -->
<svg version="1.1"
	 id="svg2" xmlns:svg="http://www.w3.org/2000/svg" xmlns:inkscape="http://www.inkscape.org/namespaces/inkscape" xmlns:sodipodi="http://sodipodi.sourceforge.net/DTD/sodipodi-0.dtd" xmlns:ns1="http://sozi.baierouge.fr" xmlns:cc="http://creativecommons.org/ns#" xmlns:rdf="http://www.w3.org/1999/02/22-rdf-syntax-ns#" xmlns:dc="http://purl.org/dc/elements/1.1/" inkscape:output_extension="org.inkscape.output.svg.inkscape" inkscape:version="0.46" sodipodi:docname="delorean.svg" sodipodi:version="0.32"
	 xmlns="http://www.w3.org/2000/svg" xmlns:xlink="http://www.w3.org/1999/xlink" x="0px" y="0px" viewBox="0 0 511.3 169.3"
	 style="enable-background:new 0 0 511.3 169.3;" xml:space="preserve">
<style type="text/css">
	.st0{fill:none;stroke:#000000;}
	.st1{fill-opacity:0;}
	.st2{fill-rule:evenodd;clip-rule:evenodd;stroke:#000000;}
	.st3{fill-rule:evenodd;clip-rule:evenodd;fill:#CCCCCC;}
	.st4{fill:none;stroke:#000000;stroke-width:2.0621;}
	.st5{fill:none;stroke:#000000;stroke-width:2.0497;}
	.st6{fill:none;stroke:#000000;stroke-width:2;}
	.st7{fill:#BCBCBC;}
	.st8{fill:#CCCCCC;}
	.st9{fill-rule:evenodd;clip-rule:evenodd;fill:#8F8F8F;}
	.st10{fill-rule:evenodd;clip-rule:evenodd;fill:#B2B2B2;}
	.st11{fill-rule:evenodd;clip-rule:evenodd;fill:#939393;}
	.st12{fill-rule:evenodd;clip-rule:evenodd;fill:#1A1A1A;stroke:#000000;}
	.st13{fill:none;stroke:#000000;stroke-width:2.0226;}
	
		.st14{fill-rule:evenodd;clip-rule:evenodd;fill:url(#path3389_00000012462431782338678000000001882298877616308384_);stroke:#000000;}
	
		.st15{opacity:0.7061;fill-rule:evenodd;clip-rule:evenodd;fill:url(#path3397_00000060750992696397252930000008803026419235140533_);enable-background:new    ;}
	.st16{fill-rule:evenodd;clip-rule:evenodd;fill:#313131;}
	
		.st17{fill-rule:evenodd;clip-rule:evenodd;fill:url(#path3413_00000088817814674588530390000016410228739059088264_);stroke:#000000;}
	.st18{fill:none;stroke:#5C5C5C;}
	.st19{fill-rule:evenodd;clip-rule:evenodd;fill:#5C5C5C;}
	.st20{fill:#B2B2B2;}
	.st21{fill-rule:evenodd;clip-rule:evenodd;stroke:#000000;stroke-width:1.2753;}
	.st22{fill:none;stroke:#8F8F8F;stroke-width:3.0545;}
	.st23{fill:#808080;}
	.st24{fill-rule:evenodd;clip-rule:evenodd;stroke:#000000;stroke-width:1.5;}
	.st25{fill-rule:evenodd;clip-rule:evenodd;fill:#1A1A1A;stroke:#000000;stroke-width:1.0309;}
	.st26{fill:#054996;}
	.st27{fill-rule:evenodd;clip-rule:evenodd;fill:#FFFFFF;stroke:#BABABA;stroke-width:6;}
	.st28{fill:#BABABA;}
	.st29{fill-rule:evenodd;clip-rule:evenodd;fill:#B3B3B3;}
	.st30{opacity:0.7214;filter:url(#filter3430);enable-background:new    ;}
	.st31{fill:#4D4D4D;}
	.st32{opacity:0.9122;filter:url(#filter3480);enable-background:new    ;}
	.st33{fill:#999999;}
	.st34{fill:none;stroke:#000000;stroke-width:1.0465;stroke-miterlimit:10;}
	.st35{fill:#666666;}
	.st36{fill:none;stroke:#000000;stroke-width:1.0901;stroke-miterlimit:10;}
	.st37{fill-rule:evenodd;clip-rule:evenodd;fill:#BABABA;}
	.st38{fill-rule:evenodd;clip-rule:evenodd;fill:#808080;stroke:#5C5C5C;stroke-width:1.5;}
	.st39{opacity:0.6985;filter:url(#filter4199);enable-background:new    ;}
	.st40{fill:none;stroke:#000000;stroke-width:2.2358;}
	.st41{fill:none;stroke:#000000;stroke-width:1.9368;}
	.st42{fill:none;stroke:#000000;stroke-width:0.4655;}
</style>
<filter  height="3.9213" id="filter4199" inkscape:collect="always" width="2.1333" x="-.56666" y="-1.4606">
	<feGaussianBlur  id="feGaussianBlur4201" inkscape:collect="always" stdDeviation="39.993862"></feGaussianBlur>
</filter>
<filter  height="1.2707" id="filter3480" inkscape:collect="always" width="1.2707" x="-.13534" y="-.13534">
	<feGaussianBlur  id="feGaussianBlur3482" inkscape:collect="always" stdDeviation="4.6240602"></feGaussianBlur>
</filter>
<filter  height="1.4692" id="filter3430" inkscape:collect="always" width="1.4692" x="-.23459" y="-.23459">
	<feGaussianBlur  id="feGaussianBlur3432" inkscape:collect="always" stdDeviation="8.0150376"></feGaussianBlur>
</filter>
<sodipodi:namedview  bordercolor="#666666" borderopacity="1.0" gridtolerance="10.0" guidetolerance="10.0" id="base" inkscape:current-layer="svg2" inkscape:cx="316.40746" inkscape:cy="55.113779" inkscape:guide-bbox="true" inkscape:pageopacity="0.0" inkscape:pageshadow="2" inkscape:window-height="949" inkscape:window-width="1280" inkscape:window-x="0" inkscape:window-y="25" inkscape:zoom="1" objecttolerance="10.0" pagecolor="#ffffff" showgrid="false" showguides="true">
	</sodipodi:namedview>
<path id="path2515" class="st0" d="M594.4-527.6C599.7-515,594.4-525.5,594.4-527.6z"/>
<rect id="rect3395" x="-2.4" y="-197.5" class="st1" width="53.9" height="81.6"/>
<g id="g3576" transform="translate(2.0408 638.93)">
	<g id="g3525" transform="translate(-67.755)">
		<path id="path3441" sodipodi:nodetypes="ccccccccccccccccccccccccccccccc" class="st0" d="M155.5,289.1h9.4l5.7-13.1l118-12.6
			l55.1-24.1l70.2-0.8l-0.8-4.5l13.1,0.4l2.5,5.7c31.6,5.2,63.1,9.4,94.7,18.8l7.3,22.5c2.3,4.5,5,9,2,13.5l-3.3,0.4
			c0.1,4-0.8,7.9-2.9,11.8l-11.4,0.8l-8.2,2.9l-2.5-3.7l-13.9,6.1c-0.5-15.7-1.9-31.1-32.2-35.1c-23.6,2.9-26.8,17.7-32.7,31
			l-0.8,11.8l-159.6-1.6c-6.6-13.7,0-33.1-31.4-35.9c-16.7-1.8-26.8,7.6-29.4,29.8l-0.8,4.1h-32.2l-1.2-4.9l0.4-4.1l-6.9-4.1h-7.8
			L155.5,289.1L155.5,289.1z"/>
		<path id="path3443" sodipodi:nodetypes="ccccc" class="st0" d="M288.6,263.8l17.1,45.7h74.7c14.9-13.9,28-28.5,34.3-45.7
			l-3.3-24.1"/>
		<path id="path3445" sodipodi:nodetypes="ccccccccccc" class="st0" d="M425.3,234.4c2.1,18,5.7,30.6,14.3,26.9l47.4,1.6
			c23.5-0.5,23.6,13.8,27.3,25.7l1.6,18.8l-8.6,3.3l-4.5-27.3c-3.6-11.6-14.2-9.2-22.9-10.6l-36.7,0.4c-10.2-2.8-22-2.5-24.9-18.8
			l-4.5-16.3"/>
		<path id="path3447" sodipodi:nodetypes="ccccc" class="st0" d="M429.8,245.4l69.8,10.2c2.3,2.2,5.4,4.4,2.5,6.5l-62.9-2.5
			C434.6,257.5,428.2,258.8,429.8,245.4z"/>
		<path id="path3451" class="st0" d="M164.1,288.3h35.1v16.3l-35.5-0.4L164.1,288.3L164.1,288.3z"/>
		<path id="path3455" class="st0" d="M519.2,284.6l-0.8,12.6l14.3-2l0.4-10.6H519.2z"/>
		<path id="path3457" sodipodi:nodetypes="ccccc" class="st0" d="M514.7,257.7c4.7,18.8,4.1,25.3,4.1,25.3l12.2,0.4l-8.2-23.7
			L514.7,257.7L514.7,257.7z"/>
		<path id="path3461" sodipodi:nodetypes="cccccccccccc" class="st2" d="M198,287c11.4-8.6,22.9-6.8,34.3-10.2
			c19.9,0.8,24.7,14.1,33.5,24.1c3.4,12.3,11.6,15.2,19.2,19.2l38,0.4l-0.4-6.5l-35.5,0.4c-11.3-5.5-19-15.9-24.9-29
			c-8.6-7.5-17.6-13.9-29.4-13.9c-9.1,0.9-18.2,1.9-27.3,4.9c-6.4,0.3-10.6,6.8-15.9,10.2L198,287L198,287z"/>
		<path id="path3463" class="st3" d="M323.7,319.3l64.9,0.4v-6.1l-64.5,1.2L323.7,319.3z"/>
		<path id="path3467" sodipodi:nodetypes="ccccccccc" class="st2" d="M388.6,319.7l31.4,0.4c3.7-3.3,3.9-6.5,4.5-9.8
			c-1.1-9.3,7.2-24,16.7-37.5l-6.5-0.8c-9.5,12.8-13.7,24.6-18,36.3c-0.7,2.8-1.4,5.8-2,6.5l-25.7,0.4L388.6,319.7L388.6,319.7z"/>
		<path id="path3469" sodipodi:nodetypes="ccccc" class="st0" d="M403.7,243.4l0.4,18.4l-102.9,3.7l49-23.3
			C368.6,241.8,388.3,239.7,403.7,243.4L403.7,243.4z"/>
		<path id="path3471" class="st0" d="M179.6,275.2l-0.4,12.2l-13.5,0.8L171,276L179.6,275.2z"/>
		<path id="path3473" class="st4" d="M199.6,291.1l13.8-0.4"/>
		<path id="path3475" class="st5" d="M262.1,289.5l37.1-0.4"/>
		<path id="path3477" class="st6" d="M299.6,288.7h100.8l23.3-1.2"/>
		<path id="path3479" class="st6" d="M484.1,287l18-1.2"/>
		<path id="path3481" class="st0" d="M513.9,285.8l4.9-0.8"/>
	</g>
	<path id="path3548" class="st7" d="M356,287.4v-1.2l-4.4,0.3c-9.6,0.6-16.8,0.8-16.8,0.5c0-0.2,0.7-1.2,1.6-2.4
		c3.9-5.2,7.4-11.5,10-17.5l1.3-3.1l-1.6-12.3c-1.5-11.1-1.7-12.3-2.4-12.3c-0.6,0-0.7,0.2-0.5,1.1c0.1,0.6,0.9,6.1,1.7,12.1l1.5,11
		l-1.7,3.9c-1.9,4.5-5.6,10.8-9.4,16.2l-2.6,3.7l-50.5,0.1c-27.8,0-50.7,0.1-51,0.1c-0.4,0-9.6-23.8-9.3-24c0.1,0,12.4-5.4,27.3-12
		l27.1-11.8l34.7-0.4c19.1-0.2,34.7-0.4,34.8-0.4c0,0,1.1,3.8,2.4,8.4s2.6,9.4,2.9,10.6c1.9,6.4,6.3,10.6,13.7,13l1.5,0.5l-2.5,3.7
		c-1.4,2-3.6,5.8-5.1,8.4C356.5,287.6,356,288.4,356,287.4L356,287.4z M288.1,264.2c26.8-1,48.7-1.8,48.8-1.9c0-0.1,0-4.5-0.1-9.8
		l-0.2-9.6l-2.2-0.5c-7.5-1.7-18.8-2.1-40.2-1.3l-12,0.4l-24.4,11.6c-14.7,7-24.4,11.8-24.5,12.2C233,266.2,231.5,266.2,288.1,264.2
		L288.1,264.2z"/>
	<path id="path3550" class="st7" d="M237.7,306.7c-4.7-12.5-6.2-16.5-6.2-16.7c0-0.1,22.2-0.1,49.4-0.1l49.4,0.1l-1.8,2.1
		c-1,1.2-5,5.4-8.9,9.4l-7.1,7.2h-37h-37.1L237.7,306.7L237.7,306.7z"/>
	<path id="path3552" class="st7" d="M255.5,316.4l-0.2-2.9l-18,0.1l-18,0.1l-2.2-1.3c-4.2-2.5-7.7-5.4-11.4-9.6
		c-3.1-3.5-7.8-10.8-7.8-12c0-0.3,5.1-0.4,16-0.4h16l3.7,9.8l3.7,9.8h38h38l6.7-6.8c3.7-3.8,7.9-8.2,9.3-9.9
		c1.4-1.7,2.7-3.1,2.7-3.2c0.2-0.2,17.9-1.2,21.4-1.2l2.3,0l-1.9,4.4c-2.6,6.3-5.7,14.6-6.5,17.6c-0.4,1.5-0.8,2.8-0.9,2.9
		c-0.1,0.1-6,0.4-13,0.6c-11.8,0.3-12.8,0.2-12.8-0.4c0-0.6-0.4-0.7-3.4-0.5c-1.9,0.1-16.2,0.4-31.9,0.7
		c-15.7,0.2-28.8,0.5-29.1,0.6s-0.6,1.1-0.6,2.3C255.7,319.2,255.7,319.2,255.5,316.4L255.5,316.4z"/>
	<path id="path3554" class="st7" d="M197.4,317.1c-0.6-1.5-1.6-5.4-3.5-13.2c-2.9-12.5-9.5-18.4-23.4-20.6c-4.6-0.8-12-0.8-14.8,0
		c-3.2,0.9-6.2,2.4-8.8,4.4l-2.3,1.9l-6.2,0.1l-6.2,0.1v-1.1c0-0.7-0.2-1.1-0.7-1.2c-1.1-0.2,4.4-3.4,8.5-4.8
		c2.2-0.8,6.7-1.8,12.8-2.9c5.2-0.9,9.9-1.8,10.6-1.9c1.6-0.5,6.3,0.1,9.8,1.1c4.1,1.2,7.6,3.3,11.1,6.6c3.9,3.7,12.8,15.3,13.9,18
		c2.4,6.3,5.9,10.2,12,13.7l2.2,1.3h-7.2l-7.2,0L197.4,317.1z"/>
	<path id="path3556" class="st7" d="M195.7,286.7c-1-2.3-8.3-8.1-14.1-11.3c-3.9-2.1-8.1-3.6-12.3-4.2c-5.5-0.8-16.8,0.6-29,3.7
		c-7.2,1.8-8.5,2.4-11.9,5.3c-1.3,1.1-3.8,3.1-5.4,4.4l-3,2.4l1.5,0.2c0.8,0.1-0.9,0.3-3.9,0.3l-5.4,0.1v-5.9v-5.9l1.7-0.2
		c3-0.4,104.4-11.2,105.3-11.2c0.8,0,1.4,1.2,5.3,11.7c2.4,6.4,4.3,11.7,4.3,11.8c-0.1,0-7.4,0.2-16.3,0.2l-16.2,0.1L195.7,286.7z"
		/>
	<path id="path3558" class="st7" d="M99.5,286.7c0.2-0.5,1.2-2.9,2.3-5.5l2-4.6l2.5-0.3c1.4-0.1,3-0.3,3.7-0.3h1.2v2.8
		c0,1.5-0.1,3.9-0.3,5.3l-0.3,2.5l-2.5,0.2C99.6,287.7,99.2,287.6,99.5,286.7L99.5,286.7z"/>
	<path id="path3560" class="st7" d="M103.7,314.6c-0.3-1-0.4-3-0.4-4.4l0.1-2.5l-2.5-1.4l-2.5-1.4l16.9,0.1l16.9,0.1v-6.3
		c0-5.4,0.1-6.3,0.6-6.5c0.4-0.1,2.7-0.2,5.3-0.2h4.6l-1.4,2.3c-2,3.4-4.1,10.1-5.1,16.5l-0.9,5.6h-15.6h-15.6L103.7,314.6
		L103.7,314.6z"/>
	<path id="path3562" class="st7" d="M423.3,309.6c0-3-1-9.5-1.8-12.2c-0.7-2.3-2.5-5.9-3.8-7.5c-0.5-0.7-1-1.4-1-1.5
		c0-0.1,0.7-0.3,1.5-0.3c0.9,0,4.8-0.2,8.8-0.5l7.2-0.5v-1.1c0-1-0.2-1.2-1.1-1.1c-0.8,0-15.9,1.1-17.1,1.2c-0.1,0-0.1,0.4-0.1,0.8
		c0,0.7-0.4,0.5-2.5-1.2c-4.5-3.6-11-6.2-19.2-7.6c-3.7-0.6-5.3-0.6-9.6,0.5c-8,1.9-14.2,5.9-18.4,11.8c-2.1,3-4.1,6.8-7,13.7
		c-1.2,2.8-2.2,4.9-2.2,4.6c0-0.3,0.2-1.8,0.6-3.5c1.3-6.6,5-14.5,11.8-25.1l4-6.2l17-0.1c22.1-0.1,21.9-0.1,27.9,0.4
		c6.5,0.6,10.1,1.7,12.3,3.7c2.9,2.6,3.4,4.1,5.6,17.6c1.1,6.7,2,12.4,2,12.5s-0.3-0.1-0.8-0.7l-0.8-0.9l-6.3,2.8
		c-3.5,1.5-6.5,2.9-6.8,3C423.4,312.1,423.3,311.5,423.3,309.6L423.3,309.6z"/>
	<path id="path3564" class="st7" d="M447.9,297.5c-0.5-5.3-1-10-1.1-10.4c-0.2-0.6,0-0.7,1.6-1c1-0.2,2-0.2,2.1-0.1
		c0.1,0.1,0,2.7-0.2,5.8c-0.2,3.1-0.3,5.7-0.2,5.9c0.1,0.1,2.5-0.1,5.4-0.5s5.2-0.6,5.4-0.5c0.4,0.4-0.6,5.4-1.5,7.5l-0.9,2.1
		l-2.7,0.2c-1.5,0.1-3.6,0.3-4.8,0.4l-2.1,0.2L447.9,297.5L447.9,297.5z"/>
	<path id="path3566" class="st7" d="M444.9,280.5c-3.2-10.5-6.9-14.8-14.9-17.1l-2.5-0.7l3.8,0c3.3,0,3.8-0.1,4.2-0.8
		c0.7-1.3,0.5-3-0.5-4.1c-2.7-3,0-2.4-37.9-8c-19.2-2.8-35.2-5.1-35.4-5.1c-0.2,0-0.4,1.3-0.5,3c0,3.6-0.4,2.8-1.6-4.1
		c-0.9-5-0.9-7,0-4.5c0.4,1,0.9,1.6,1.4,1.7c0.5,0.1,11,1.8,23.4,3.9c23.9,3.9,32.9,5.6,44.8,8.2c7.7,1.7,16.5,3.9,16.8,4.1
		c0.3,0.3,2.7,11.8,3.5,16.5c0.4,2.7,0.8,6,0.8,7.4v2.6l1.3,0c0.8,0,1,0.1,0.5,0.2c-0.5,0.1-1.3,0.3-1.8,0.5
		c-0.6,0.2-1.7,0.5-2.5,0.6l-1.5,0.2L444.9,280.5z"/>
</g>
<path id="rect3785" class="st1" d="M-67.9,335.9H77.9c0.6,0,1.1,0.5,1.1,1v116.9c0,0.6-0.5,1-1.1,1H-67.9c-0.6,0-1.1-0.5-1.1-1
	V336.9C-69,336.3-68.5,335.9-67.9,335.9z"/>
<path id="path3416" class="st0" d="M504,208.3l5,2"/>
<path id="rect2565" class="st8" d="M387,5.9h1c3.9,0,7,3.1,7,7v19c0,3.9-3.1,7-7,7h-1c-3.9,0-7-3.1-7-7v-19C380,9,383.1,5.9,387,5.9
	z"/>
<path id="path3849" sodipodi:nodetypes="cccccccc" class="st9" d="M345.3,30.2h5c3.4,12.6,4.2,26.2,13.3,36.3l11.3,8.3l-10.7,19
	l-31,0.7l17-27.7L345.3,30.2L345.3,30.2z"/>
<path id="path3359" sodipodi:nodetypes="ccccccc" class="st10" d="M179.3,62.9l70.6-31.8l94.7-1.6c4.1,12.2,5.1,24.5,4.9,36.7
	c-9.8,19.6-23.7,38.7-43.3,57.1l-104.5-0.8L179.3,62.9L179.3,62.9z"/>
<path id="path3361" sodipodi:nodetypes="ccccccccc" class="st11" d="M178.9,62.5L32.8,79.7l0,42l33.5,6.5c4-29.2,16-32.1,27.3-37.1
	c18.3-2.1,29,2.4,37.5,9c9.7,7.6,11.5,16.7,16.3,25.3l54.7-1.6L178.9,62.5L178.9,62.5z"/>
<path id="path3365" sodipodi:nodetypes="ccccc" class="st12" d="M2.1,116.8l57.1,2.4V96.8L0.5,99.2C1.4,104,2.3,108.8,2.1,116.8
	L2.1,116.8z"/>
<path id="path3371" class="st13" d="M365.4,95.6l-222,2"/>
<linearGradient id="path3389_00000182523718452465120820000017196757850875078569_" gradientUnits="userSpaceOnUse" x1="266.4895" y1="15.4136" x2="264.4495" y2="70.9246" gradientTransform="matrix(1 0 0 -1 -4.440892e-15 137.3672)">
	<stop  offset="0" style="stop-color:#BBBBBB"/>
	<stop  offset="0.5343" style="stop-color:#393939;stop-opacity:0.3098"/>
	<stop  offset="1" style="stop-color:#000000;stop-opacity:0"/>
</linearGradient>
<path id="path3389" sodipodi:nodetypes="ccccc" style="fill-rule:evenodd;clip-rule:evenodd;fill:url(#path3389_00000182523718452465120820000017196757850875078569_);stroke:#000000;" d="
	M179.3,62.5l22.4,61.6h104.1c22.2-19.2,31.8-38.4,43.7-57.6c-0.9-13.9-1.3-28.5-5.3-37.1"/>
<linearGradient id="path3397_00000106861834476302542490000015571502960225850039_" gradientUnits="userSpaceOnUse" x1="269.07" y1="113.232" x2="269.07" y2="140.941" gradientTransform="matrix(1 0 0 -1 -4.440892e-15 176.1002)">
	<stop  offset="0" style="stop-color:#4D4D4D"/>
	<stop  offset="0.4331" style="stop-color:#1A1A1A"/>
	<stop  offset="1" style="stop-color:#000000"/>
</linearGradient>
<path id="path3397" style="opacity:0.7061;fill-rule:evenodd;clip-rule:evenodd;fill:url(#path3397_00000106861834476302542490000015571502960225850039_);enable-background:new    ;" d="
	M200.9,60.1l53.9-22.9l83.7-2v26.9l-138.8,5.3L200.9,60.1L200.9,60.1z"/>
<path id="path3409" sodipodi:nodetypes="cccccc" class="st16" d="M32.3,80.1c-3-1.3-7-0.4-11,0.4l-9,15.1c-5.6-0.4-8.8,1.5-12.2,3.3
	l32.7-1.6L32.3,80.1z"/>
<path id="path3298" class="st2" d="M439.6,34.1l18-11l2.9,4.5l-12.2,7.8L439.6,34.1L439.6,34.1z"/>
<path id="path3300" class="st12" d="M458.2,23l-9.6,1.9l-12.2,7.4l4.3,2.5"/>
<linearGradient id="path3413_00000126312982101579404460000000498951380343871906_" gradientUnits="userSpaceOnUse" x1="351.4579" y1="15.1382" x2="350.6379" y2="73.0932" gradientTransform="matrix(1 0 0 -1 -4.440892e-15 137.3672)">
	<stop  offset="0" style="stop-color:#000000"/>
	<stop  offset="1" style="stop-color:#000000;stop-opacity:0"/>
</linearGradient>
<path id="path3413" sodipodi:nodetypes="cccccccc" style="fill-rule:evenodd;clip-rule:evenodd;fill:url(#path3413_00000126312982101579404460000000498951380343871906_);stroke:#000000;" d="
	M386.9,75c-12.6,14.9-22.5,30.8-25.3,49c-0.8,5.2-2.8,10.2-12.2,14.3l-33.9-1.6c1.6-2.4,2.8-4.4,3.3-5.7l30.6-0.4
	c6.1-18.8,15.6-37.6,26.1-56.3L386.9,75L386.9,75z"/>
<path id="path3570" sodipodi:nodetypes="cc" class="st18" d="M498.4,58.2C455.7,44.3,410,37.8,365.3,28.8"/>
<path id="path3572" sodipodi:nodetypes="ccccc" class="st2" d="M201.2,68.1l20-2.4c1.6-4.2-0.5-8.4-2-12.6L200.8,60
	C199,63.1,197.7,66.1,201.2,68.1L201.2,68.1z"/>
<path id="path3574" sodipodi:nodetypes="cc" class="st19" d="M486.1,54.5c7.5,11.2,4.4,24.2,6.1,36.3l16.3-2l-9.4-31L486.1,54.5
	L486.1,54.5z"/>
<path id="path3606" sodipodi:nodetypes="ccccc" class="st2" d="M509.4,90.5l-20.8,0.4c3.2,5.6,1.9,11.1,0.8,16.7l19.6-3.3
	C511.3,98.6,511.4,94,509.4,90.5z"/>
<path id="path3618" class="st20" d="M482.7,81c-2-0.7-7.5-8.8-8.1-11.8c-0.1-0.8-0.4-1.7-0.5-2.1c-0.2-0.7-1.8-1.3-1.8-0.7
	c0,0.3-0.2,0.2-0.6,0c-0.4-0.3-0.9-0.4-1.6-0.1c-0.6,0.2-1.3,0.3-1.7,0.2s-0.6,0-0.6,0.2s-0.2,0.4-0.5,0.4c-0.2-0.1-0.5,0.3-0.5,0.8
	c0,0.5,0,0.9,0.2,0.9c0.4,0,2.1,3.6,2,4.4c0,0.6-0.1,0.6-0.5-0.1c-0.3-0.4-1.1-1.6-1.8-2.4s-1.3-1.8-1.4-2c0-0.2-0.9-0.9-2-1.4
	s-2.8-1.5-3.8-2c-1-0.5-3.1-1.4-4.6-1.9c-1.6-0.5-2.6-1-2.2-1.1c0.3-0.1,3-0.3,5.9-0.4s6-0.3,6.7-0.4l1.4-0.2l-1.4,0.6
	c-1.4,0.6-1.4,0.6-0.6,1.4c0.8,0.9,4.2,2,6.1,2c2.5,0,3.1,0.4,4.5,3.2c0.8,1.5,1.9,3.1,2.5,3.4c2.2,1.4,5.4,0.6,6.4-1.6
	c0.2-0.6,0.6-1,0.8-1s1,1,1.8,2.2c2.3,3.6,3.4,2.8,3.5-2.5c0-3.1,0.1-3.1,0.4-1.2c0.9,5.6-0.1,10.6-2.3,11.1
	c-0.5,0.1-0.9,0.4-0.9,0.7s-0.1,0.3-0.3,0.2c-0.1-0.1-0.5,0-0.7,0.3C485.8,80.8,483.7,81.4,482.7,81L482.7,81z"/>
<path id="path3626" class="st20" d="M381,59.3c-1.7-0.5-5.7-2.7-5.4-3c0.1-0.1,1.1,0.2,2.2,0.6c1.1,0.4,3.8,1.2,5.9,1.7s4,1,4,1.1
	C388.2,60,382.6,59.7,381,59.3L381,59.3z"/>
<path id="path3628" class="st20" d="M385.2,59.9c-0.1-0.2-1.1-0.4-2.2-0.6c-2.3-0.2-7.3-2.4-5.2-2.2c0.7,0.1,1.5,0.2,1.7,0.4
	s0.5,0.2,0.5,0c0-0.1,0.3-0.1,0.6,0.2c0.3,0.3,0.9,0.4,1.2,0.3s0.6-0.1,0.6,0.1c0,0.4,5.2,1.8,5.7,1.5c0.2-0.1,0.5,0,0.6,0.2
	c0.2,0.3-0.4,0.4-1.6,0.4C386.2,60.2,385.3,60,385.2,59.9L385.2,59.9z"/>
<path id="path3750" class="st6" d="M192.6,97L331,95.8"/>
<path id="path3483" sodipodi:nodetypes="cccccccccccc" class="st21" d="M61.2,96.3c15-10.7,30.1-8.4,45.1-12.6
	c26.3,1,32.5,17.4,44.1,29.8c4.5,15.2,15.2,18.8,25.2,23.7l50,0.5l-0.5-8.1l-46.7,0.5c-14.8-6.8-25.1-19.6-32.8-35.8
	c-11.3-9.2-23.1-17.2-38.7-17.1c-12,1.1-24,2.3-36,6.1c-8.3,0.4-14,8.4-20.9,12.6L61.2,96.3L61.2,96.3z"/>
<path id="path3752" sodipodi:nodetypes="cccccccccc" class="st9" d="M362.7,125.2h2c7.9-14.5,8-31.9,31.3-40.7
	c13.6-0.3,24.6-5.5,45.7,8.3c6.8,9.9,10.3,19.8,12.7,29.7l8.7-3.7c-1.7-11.1-2.5-21.4-5-33.3c-4.4-6.7-12.8-8.8-22.3-8.7l-48-0.7
	C374.1,84.6,365,112,362.7,125.2z"/>
<path id="path3821" sodipodi:nodetypes="ccc" class="st22" d="M363,125.5c10.7-23.9,21.8-45.3,48.5-42.4c33.5,3,39.5,21,41.8,40.1"
	/>
<path id="path3831" sodipodi:nodetypes="ccccc" class="st2" d="M386,76.5l-10.3-1.3L362,98.9l7.7,1.3
	C373.2,90.9,378.9,83.2,386,76.5z"/>
<path id="path3847" class="st23" d="M318.6,113c5.5-5.7,11.1-11.6,12.6-13.1l2.7-2.7l11.5,0.3c6.3,0.1,11.8,0.4,12.3,0.5l0.8,0.2
	l-0.9,0.9c-1.1,1-1.1,1.3-0.4,1.9c0.8,0.6,0.7,2-0.5,6.6c-2,7.8-4.2,14.3-5.1,14.8c-1,0.6-12.8,0.9-30,1l-12.9,0L318.6,113
	L318.6,113z"/>
<path id="path3915" sodipodi:nodetypes="ccccc" class="st3" d="M336.1,130c-1.9,2.7-1,5.6,0.6,8.5c1.4,0.4,2.7,0.8,4,0.3
	c-1.3-2.9-2.5-5.9-0.9-8.6C338.9,130,338.2,129.6,336.1,130L336.1,130z"/>
<path id="path3921" sodipodi:nodetypes="cccccccccccccccccc" class="st9" d="M452.3,124.2l0.3,5.3l18.3-5.7l1.7,3.3l26.7-5l9.3-17
	l-20.3,3.3c3.1-7.4,2.2-13.4,0-19h3.3c-0.6-11.1,3.9-21.4-5-35c-37.4-10.4-78.1-18.2-120-25c2,19.8,7.5,30.5,14.7,30.3
	c42.6,0,50.4-1.5,72.7,2.3c18.5,10.3,18.8,17.7,20,28.3l3.3,27.7l-13.3,3.3l-1.3-2.3C458.7,120.3,453.1,119.8,452.3,124.2
	L452.3,124.2z"/>
<path id="path3316" sodipodi:nodetypes="cccccc" class="st24" d="M369.9,38.2c-6-4.3-7.6,6.7,4.5,17.6c16.1,4.6,29.5,4.5,42.5,3.7
	l46.9,0.8c3-1.9,2-3.8,0.8-5.7C446.3,49.6,401.5,41.2,369.9,38.2z"/>
<path id="rect2571" d="M381,14.9h12.1c0.6,0,1,0.5,1,1.1v3.9c0,0.6-0.5,1.1-1,1.1H381c-0.6,0-1-0.5-1-1.1v-3.9
	C380,15.3,380.5,14.9,381,14.9z"/>
<path id="path3294" class="st25" d="M487.7,25.5l-11.8-0.4l-25.7,15.6L458,45"/>
<path id="path2514" class="st2" d="M449.4,35l27.3-14.3l11.4-0.8l9.8,24.5l0.4,13.1l-30.2-8.6l-0.4-6.5
	C467.8,42.3,449.4,35,449.4,35z"/>
<path id="rect3813" class="st26" d="M404.6,48.9h0.9c3.1,0,5.6,2.5,5.6,5.6v15.8c0,3.1-2.5,5.6-5.6,5.6h-0.9c-3.1,0-5.6-2.5-5.6-5.6
	V54.4C399,51.4,401.5,48.9,404.6,48.9z"/>
<path id="path2573" sodipodi:nodetypes="ccc" class="st27" d="M426,39.9c15.8-2.9,32.9-9.5,41,8l4,1"/>
<path id="path3351" sodipodi:cx="221.5" sodipodi:cy="272.26764" sodipodi:rx="4.5" sodipodi:ry="4.5" sodipodi:type="arc" class="st28" d="
	M331,80.4c0,2.5-2,4.5-4.5,4.5s-4.5-2-4.5-4.5s2-4.5,4.5-4.5S331,77.9,331,80.4z"/>
<path id="path3353" sodipodi:nodetypes="ccccc" class="st3" d="M367.6,87.9c3.1,2.6,7.1,2.1,11.3,0.8c0.8-1.4,1.6-2.9,1.2-4.4
	c-4.1,0.9-8.2,1.7-11.5-0.6C368.1,84.8,367.6,85.5,367.6,87.9z"/>
<path id="path3355" sodipodi:nodetypes="ccccccc" class="st2" d="M4,117.9c15.9,0.5,16.5,7.6,14,16l41,3l8-7l-37-8l2-4H4z"/>
<path id="path2512" sodipodi:nodetypes="ccccc" class="st3" d="M170.6,125.8c-3,1.4-3.6,4.4-3.6,7.7c1,1,2,2,3.4,2.2
	c0.3-3.2,0.7-6.3,3.5-7.9C173,127.1,172.5,126.5,170.6,125.8L170.6,125.8z"/>
<path id="path3407" sodipodi:nodetypes="ccccc" class="st3" d="M159.4,115.9c-3.3,0.6-4.8,3.5-5.8,6.9c0.6,1.3,1.3,2.6,2.6,3.2
	c1.3-3.2,2.6-6.3,5.8-7.2C161.3,118,161.1,117.2,159.4,115.9L159.4,115.9z"/>
<path id="path3405" sodipodi:nodetypes="ccccc" class="st29" d="M144.6,95.1c-3,1.5-3.6,4.7-3.6,8.3c1,1.1,2,2.1,3.4,2.4
	c0.3-3.4,0.7-6.8,3.5-8.5C147.1,96.6,146.6,95.9,144.6,95.1z"/>
<path id="path3403" sodipodi:nodetypes="ccccc" class="st29" d="M104.8,75.5c-1.9,2.8-0.9,5.9,0.8,9c1.4,0.5,2.8,0.9,4.1,0.5
	c-1.4-3.2-2.6-6.3-1-9.1C107.7,75.6,107,75.3,104.8,75.5z"/>
<path id="path3399" sodipodi:nodetypes="ccccc" class="st29" d="M56.9,87.9c-0.7,3.3,1.5,5.7,4.3,8c1.4-0.1,2.9-0.2,3.9-1.2
	c-2.6-2.3-4.9-4.8-4.6-8C59.6,86.9,58.7,86.8,56.9,87.9z"/>
<path id="path3917" inkscape:transform-center-x="6.3333333" inkscape:transform-center-y="2" sodipodi:nodetypes="ccccc" class="st3" d="
	M336.1,130c-1.9,2.7-1,5.6,0.6,8.5c1.4,0.4,2.7,0.8,4,0.3c-1.3-2.9-2.5-5.9-0.9-8.6C338.9,130,338.2,129.6,336.1,130L336.1,130z"/>
<path id="path3919" sodipodi:nodetypes="ccccc" class="st3" d="M353.6,117.9c2.6,2.6,6,2.1,9.5,0.8c0.7-1.4,1.3-2.9,1-4.4
	c-3.5,0.9-6.9,1.7-9.7-0.6C354,114.8,353.6,115.5,353.6,117.9L353.6,117.9z"/>
<g id="g3484" transform="matrix(.20930 0 0 .20930 106.72 116.36)">
	<path id="path3360" sodipodi:cx="127" sodipodi:cy="137.76765" sodipodi:rx="41" sodipodi:ry="41" sodipodi:type="arc" d="
		M159,40.6c0,95-77,172-172,172s-172-77-172-172l0,0c0-95,77-172,172-172S159-54.4,159,40.6L159,40.6z"/>
	<g id="path3396" sodipodi:cx="127" sodipodi:cy="137.76765" sodipodi:rx="41" sodipodi:ry="41" sodipodi:type="arc" class="st30">
		<path class="st31" d="M144,41.6c0,86.2-69.8,156-156,156s-156-69.8-156-156l0,0c0-86.2,69.8-156,156-156S144-44.5,144,41.6
			L144,41.6z"/>
	</g>
</g>
<g id="g3517" transform="matrix(.20930 0 0 .20930 36.395 117.2)">
	<g id="g3506">
		
			<path id="path3362" sodipodi:cx="127" sodipodi:cy="137.76765" sodipodi:rx="41" sodipodi:ry="41" sodipodi:type="arc" class="st31" d="
			M443.7,38.2c0,64.6-52.4,117.1-117.1,117.1S209.6,102.9,209.6,38.2l0,0c0-64.6,52.4-117.1,117.1-117.1S443.7-26.4,443.7,38.2
			L443.7,38.2z"/>
		<g id="path3434" sodipodi:cx="127" sodipodi:cy="137.76765" sodipodi:rx="41" sodipodi:ry="41" sodipodi:type="arc" class="st32">
			<path class="st33" d="M436.8,39.8c0,60.5-49.1,109.6-109.6,109.6S217.5,100.3,217.5,39.8l0,0c0-60.5,49.1-109.6,109.6-109.6
				S436.8-20.8,436.8,39.8L436.8,39.8z"/>
		</g>
		<path id="path3374" class="st34" d="M288.2-23.6l-4.7-36.5L306.9-32l2.8-35.6l16.9,33.7l2.8-34.6L348.1-31l9.4-31.8l3.7,33.7
			l26.2-19.7l-10.3,30.9L409-31l-17.8,30L424-9.5l-23.4,28.1l33.7,5.6l-30.9,10.3l31.8,12.2l-36.5,7.5l33.7,13.1l-41.2,8.4L427.7,86
			l-45,3.8l29,17.8l-44-5.6l24.3,25.3l-39.3-16.9l12.2,31.8L337.8,115l-4.7,33.7l-19.7-35.6l-5.6,34.7l-8.4-39.3l-17.8,31.8
			l2.8-38.4L261,126.3l8.4-37.5l-30,14.1l15.9-32.8l-32.8,5.6l29-30l-32.8,1.9l32.8-18.7l-30-7.5l32.8-5.6L226.4-3.9l36.5,4.7
			l-24.4-24.4l35.6,12.2l-16.9-30L288.2-23.6L288.2-23.6z"/>
		
			<path id="path3364" sodipodi:cx="127" sodipodi:cy="137.76765" sodipodi:rx="41" sodipodi:ry="41" sodipodi:type="arc" class="st35" d="
			M401,39.8c0,40.8-33.1,73.8-73.8,73.8s-73.8-33.1-73.8-73.8l0,0c0-40.8,33.1-73.8,73.8-73.8S401-1,401,39.8L401,39.8z"/>
		<path id="path3376" sodipodi:cx="127" sodipodi:cy="137.76765" sodipodi:rx="41" sodipodi:ry="41" sodipodi:type="arc" d="
			M354.1,38.4c0,14.1-11.5,25.6-25.6,25.6c-14.1,0-25.6-11.5-25.6-25.6l0,0c0-14.1,11.5-25.6,25.6-25.6
			C342.7,12.8,354.1,24.2,354.1,38.4L354.1,38.4z"/>
		<path id="path3378" sodipodi:cx="127" sodipodi:cy="137.76765" sodipodi:rx="41" sodipodi:ry="41" sodipodi:type="arc" d="
			M291.4,6.5c0,1.7-1.4,3.1-3.1,3.1s-3.1-1.4-3.1-3.1l0,0c0-1.7,1.4-3.1,3.1-3.1S291.4,4.8,291.4,6.5L291.4,6.5z"/>
		<path id="path3380" sodipodi:cx="127" sodipodi:cy="137.76765" sodipodi:rx="41" sodipodi:ry="41" sodipodi:type="arc" d="
			M375.7,70.2c0,1.7-1.4,3.1-3.1,3.1s-3.1-1.4-3.1-3.1l0,0c0-1.7,1.4-3.1,3.1-3.1S375.7,68.5,375.7,70.2L375.7,70.2z"/>
		<path id="path3382" sodipodi:cx="127" sodipodi:cy="137.76765" sodipodi:rx="41" sodipodi:ry="41" sodipodi:type="arc" d="
			M291.4,73.9c0,1.7-1.4,3.1-3.1,3.1s-3.1-1.4-3.1-3.1l0,0c0-1.7,1.4-3.1,3.1-3.1S291.4,72.2,291.4,73.9L291.4,73.9z"/>
		<path id="path3384" sodipodi:cx="127" sodipodi:cy="137.76765" sodipodi:rx="41" sodipodi:ry="41" sodipodi:type="arc" d="
			M371.9,6.5c0,1.7-1.4,3.1-3.1,3.1s-3.1-1.4-3.1-3.1l0,0c0-1.7,1.4-3.1,3.1-3.1S371.9,4.8,371.9,6.5L371.9,6.5z"/>
	</g>
</g>
<g id="g3547" transform="matrix(.21802 0 0 .21802 414.33 108.89)">
	<path id="path3549" sodipodi:cx="127" sodipodi:cy="137.76765" sodipodi:rx="41" sodipodi:ry="41" sodipodi:type="arc" d="
		M159,57.2c0,95-77,172-172,172s-172-77-172-172l0,0c0-95,77-172,172-172S159-37.8,159,57.2L159,57.2z"/>
	<g id="path3551" sodipodi:cx="127" sodipodi:cy="137.76765" sodipodi:rx="41" sodipodi:ry="41" sodipodi:type="arc" class="st30">
		<path class="st31" d="M144,58.2c0,86.2-69.8,156-156,156s-156-69.8-156-156l0,0c0-86.2,69.8-156,156-156S144-27.9,144,58.2
			L144,58.2z"/>
	</g>
</g>
<g id="g3553" transform="matrix(.21802 0 0 .21802 341.08 109.76)">
	<g id="g3555">
		
			<path id="path3557" sodipodi:cx="127" sodipodi:cy="137.76765" sodipodi:rx="41" sodipodi:ry="41" sodipodi:type="arc" class="st31" d="
			M443.7,54.8c0,64.6-52.4,117.1-117.1,117.1S209.6,119.5,209.6,54.8l0,0c0-64.6,52.4-117.1,117.1-117.1S443.7-9.8,443.7,54.8
			L443.7,54.8z"/>
		<g id="path3559" sodipodi:cx="127" sodipodi:cy="137.76765" sodipodi:rx="41" sodipodi:ry="41" sodipodi:type="arc" class="st32">
			<path class="st33" d="M436.8,56.4c0,60.5-49.1,109.6-109.6,109.6S217.5,116.9,217.5,56.4l0,0c0-60.5,49.1-109.6,109.6-109.6
				S436.8-4.2,436.8,56.4L436.8,56.4z"/>
		</g>
		<path id="path3561" class="st36" d="M288.2-7l-4.7-36.5l23.4,28.1l2.8-35.6l16.9,33.7l2.8-34.6l18.7,37.5l9.4-31.8l3.7,33.7
			l26.2-19.7L377.1-1.3L409-14.4l-17.8,30L424,7.1l-23.4,28.1l33.7,5.6l-30.9,10.3l31.8,12.2l-36.5,7.5l33.7,13.1l-41.2,8.4
			l36.5,10.3l-45,3.8l29,17.8l-44-5.6l24.3,25.3L352.8,127l12.2,31.8l-27.2-27.2l-4.7,33.7l-19.7-35.6l-5.6,34.7l-8.4-39.3
			l-17.8,31.8l2.8-38.4L261,142.9l8.4-37.5l-30,14.1l15.9-32.8l-32.8,5.6l29-30l-32.8,1.9l32.8-18.7l-30-7.5l32.8-5.6l-28.1-19.7
			l36.5,4.7L238.5-7l35.6,12.2l-16.9-30L288.2-7L288.2-7z"/>
		
			<path id="path3563" sodipodi:cx="127" sodipodi:cy="137.76765" sodipodi:rx="41" sodipodi:ry="41" sodipodi:type="arc" class="st35" d="
			M401,56.4c0,40.8-33.1,73.8-73.8,73.8s-73.8-33.1-73.8-73.8l0,0c0-40.8,33.1-73.8,73.8-73.8S401,15.6,401,56.4L401,56.4z"/>
		<path id="path3565" sodipodi:cx="127" sodipodi:cy="137.76765" sodipodi:rx="41" sodipodi:ry="41" sodipodi:type="arc" d="
			M354.1,55c0,14.1-11.5,25.6-25.6,25.6S302.9,69.1,302.9,55l0,0c0-14.1,11.5-25.6,25.6-25.6S354.1,40.8,354.1,55L354.1,55z"/>
		<path id="path3567" sodipodi:cx="127" sodipodi:cy="137.76765" sodipodi:rx="41" sodipodi:ry="41" sodipodi:type="arc" d="
			M291.4,23.1c0,1.7-1.4,3.1-3.1,3.1c-1.7,0-3.1-1.4-3.1-3.1l0,0c0-1.7,1.4-3.1,3.1-3.1C290,20,291.4,21.4,291.4,23.1L291.4,23.1z"
			/>
		<path id="path3569" sodipodi:cx="127" sodipodi:cy="137.76765" sodipodi:rx="41" sodipodi:ry="41" sodipodi:type="arc" d="
			M375.7,86.8c0,1.7-1.4,3.1-3.1,3.1c-1.7,0-3.1-1.4-3.1-3.1l0,0c0-1.7,1.4-3.1,3.1-3.1C374.3,83.7,375.7,85.1,375.7,86.8
			L375.7,86.8z"/>
		<path id="path3571" sodipodi:cx="127" sodipodi:cy="137.76765" sodipodi:rx="41" sodipodi:ry="41" sodipodi:type="arc" d="
			M291.4,90.5c0,1.7-1.4,3.1-3.1,3.1c-1.7,0-3.1-1.4-3.1-3.1l0,0c0-1.7,1.4-3.1,3.1-3.1C290,87.4,291.4,88.8,291.4,90.5L291.4,90.5z
			"/>
		<path id="path3573" sodipodi:cx="127" sodipodi:cy="137.76765" sodipodi:rx="41" sodipodi:ry="41" sodipodi:type="arc" d="
			M371.9,23.1c0,1.7-1.4,3.1-3.1,3.1c-1.7,0-3.1-1.4-3.1-3.1l0,0c0-1.7,1.4-3.1,3.1-3.1C370.5,20,371.9,21.4,371.9,23.1L371.9,23.1z
			"/>
	</g>
</g>
<path id="path3789" sodipodi:nodetypes="cccczc" class="st37" d="M331.6,5.8l28.3-0.3c2.9,2,3.7,5.1,0.6,10.5
	c-7.8,1.4-15.4,3-29,0.3c0,0-8.2-3.2-8-6.1C323.9,7.4,331.6,5.8,331.6,5.8z"/>
<path id="rect3805" class="st26" d="M386.6,48.9h0.9c3.1,0,5.6,2.5,5.6,5.6v15.8c0,3.1-2.5,5.6-5.6,5.6h-0.9c-3.1,0-5.6-2.5-5.6-5.6
	V54.4C381,51.4,383.5,48.9,386.6,48.9z"/>
<path id="rect3815" class="st26" d="M420.6,48.9h0.9c3.1,0,5.6,2.5,5.6,5.6v15.8c0,3.1-2.5,5.6-5.6,5.6h-0.9c-3.1,0-5.6-2.5-5.6-5.6
	V54.4C415,51.4,417.5,48.9,420.6,48.9z"/>
<path id="path3350" sodipodi:nodetypes="ccccccccccc" class="st38" d="M351.4,30.1c3.8,26.5,12.5,47.7,43.6,44.5
	c22.9,3.4,61.8-4.7,64.4,13.4l5.2,33.3l12.1-3.9l-4.8-33.2c-4.7-24.5-27.4-22-47.5-23.3H386c-10.5,0.4-15.2-6.9-17.7-16.8l-3-16.4
	C365.2,27.5,351.4,30.1,351.4,30.1z"/>
<path id="rect3803" d="M353.9,5.8l0.3,12.1c0,0.6-0.4,1.1-1,1.1l-3.9,0.1c-0.6,0-1.1-0.4-1.1-1l-0.3-12.1c0-0.6,0.4-1.1,1-1.1
	l3.9-0.1C353.4,4.8,353.9,5.2,353.9,5.8z"/>
<g id="path3817" sodipodi:nodetypes="ccccccccc" class="st39">
	<path class="st3" d="M178.9,62.5L32.8,79.7l0,42l33.5,6.5c4-29.2,16-32.1,27.3-37.1c18.3-2.1,29,2.4,37.5,9
		c9.7,7.6,11.5,16.7,16.3,25.3l54.7-1.6L178.9,62.5L178.9,62.5z"/>
</g>
<path id="path3414" class="st40" d="M431.1,91.3l27.7-1"/>
<path id="path3418" class="st41" d="M473,91l16.1-0.5"/>
<path id="path3428" inkscape:transform-center-x="6.3333333" inkscape:transform-center-y="1.1241032" sodipodi:nodetypes="ccccc" class="st3" d="
	M438.1,72.9c-1.9,1.5-1,3.1,0.6,4.8c1.4,0.2,2.7,0.4,4,0.1c-1.3-1.6-2.5-3.3-0.9-4.8C440.9,72.9,440.2,72.7,438.1,72.9L438.1,72.9z"
	/>
<path id="path3666" inkscape:transform-center-x="6.3333333" inkscape:transform-center-y="1.1241032" sodipodi:nodetypes="ccccc" class="st3" d="
	M400.1,72.9c-1.9,1.5-1,3.1,0.6,4.8c1.4,0.2,2.7,0.4,4,0.1c-1.3-1.6-2.5-3.3-0.9-4.8C402.9,72.9,402.2,72.7,400.1,72.9L400.1,72.9z"
	/>
<path id="path3668" inkscape:transform-center-x="3.8869993" inkscape:transform-center-y="-4.601153" sodipodi:nodetypes="ccccc" class="st3" d="
	M360.3,53.6c-2.3-0.9-3.2,0.7-3.8,2.9c0.5,1.3,1,2.5,1.9,3.6c0.8-2,1.6-3.8,3.7-3.2C361.8,56,361.5,55.3,360.3,53.6z"/>
<path id="path3670" inkscape:transform-center-x="-2.0706107" inkscape:transform-center-y="5.9094697" sodipodi:nodetypes="ccccc" class="st3" d="
	M367.3,51.5c1.8,1.6,3.2,0.4,4.6-1.5c0-1.4,0-2.7-0.5-4c-1.4,1.6-2.8,3-4.6,1.7C366.8,48.8,366.7,49.5,367.3,51.5z"/>
<path id="path3672" inkscape:transform-center-x="6.3333333" inkscape:transform-center-y="1.1241032" sodipodi:nodetypes="ccccc" class="st3" d="
	M438.1,58.9c-1.9,1.5-1,3.1,0.6,4.8c1.4,0.2,2.7,0.4,4,0.1c-1.3-1.6-2.5-3.3-0.9-4.8C440.9,58.9,440.2,58.7,438.1,58.9L438.1,58.9z"
	/>
<path id="path3674" class="st2" d="M452,120.3l39-6v-6l18-3l-12,19l-44,7L452,120.3z"/>
<path id="path3676" class="st42" d="M327.2,84.6c-1-6.1,0.6-6.6,0.6-6.6"/>
<path id="path3678" inkscape:transform-center-x="1.7510443" inkscape:transform-center-y="-6.4410163" sodipodi:nodetypes="ccccc" class="st3" d="
	M463.8,102c-1.8-1.9-3.4-0.7-4.9,1.2c-0.1,1.4-0.2,2.9,0.2,4.2c1.6-1.6,3.2-2.9,5-1.4C464.1,104.9,464.2,104.1,463.8,102z"/>
<path id="path3680" inkscape:transform-center-x="1.7510443" inkscape:transform-center-y="-6.4410163" sodipodi:nodetypes="ccccc" class="st3" d="
	M477.8,102c-1.8-1.9-3.4-0.7-4.9,1.2c-0.1,1.4-0.2,2.9,0.2,4.2c1.6-1.6,3.2-2.9,5-1.4C478.1,104.9,478.2,104.1,477.8,102z"/>
<path id="path3349" sodipodi:nodetypes="ccccc" class="st37" d="M364,27.9c-4.7-4.1-3.1-10.8-20-10c-13.9-0.3-14,7.6-15,15l23-2
	L364,27.9z"/>
</svg>
